<svg id="Layer_1" data-name="Layer 1" xmlns="http://www.w3.org/2000/svg" viewBox="0 0 440.4 238.94"><defs><style>.cls-1{fill:#3f8f97;}.cls-2{fill:#5dca69;}.cls-2,.cls-3{opacity:0.75;}.cls-3{fill:#a8f867;}.cls-4{font-size:34px;}.cls-10,.cls-4{font-family:SourceSansRoman-Bold, Source Sans Variable;font-weight:700;}.cls-5{letter-spacing:0em;}.cls-6{letter-spacing:-0.01em;}.cls-7{letter-spacing:-0.03em;}.cls-8{letter-spacing:-0.01em;}.cls-9{letter-spacing:0em;}.cls-10{font-size:15.5px;}.cls-11{letter-spacing:-0.01em;}.cls-12{letter-spacing:-0.02em;}.cls-13{letter-spacing:-0.01em;}.cls-14{letter-spacing:-0.01em;}.cls-15{letter-spacing:-0.01em;}.cls-16{letter-spacing:-0.03em;}</style></defs><path class="cls-1" d="M126.5,120.17,46.13,159.36a10,10,0,0,0-5.62,8.86L40,205.46l-25.81,12A10,10,0,0,1,0,208.38V142.56l41.41-20.39L0,99.06V32.51a10,10,0,0,1,14.34-9L40,35.87l-.41,33.46a10,10,0,0,0,5.43,9Z"/><path class="cls-2" d="M171,105.34V138.2a10,10,0,0,1-5.79,9.07L40,205.46l.49-37.24a10,10,0,0,1,5.62-8.86l80.37-39.19L45,78.35a10,10,0,0,1-5.43-9L40,35.87,165.34,96.33A10,10,0,0,1,171,105.34Z"/><path class="cls-3" d="M213.5,85.29V153.7a10,10,0,0,1-5.61,9L54.11,237.91a10,10,0,0,1-14.4-9.11L40,205.46l125.19-58.19A10,10,0,0,0,171,138.2V105.34a10,10,0,0,0-5.66-9L40,35.87l.32-26A10,10,0,0,1,54.71,1l153.2,75.27A10,10,0,0,1,213.5,85.29Z"/><text class="cls-4" transform="translate(221.34 119.79)"><tspan class="cls-5">A</tspan><tspan class="cls-6" x="19.41" y="0">A</tspan><tspan x="38.62" y="0" xml:space="preserve"> Handic</tspan><tspan class="cls-7" x="150.45" y="0">r</tspan><tspan x="163.03" y="0">a</tspan><tspan class="cls-8" x="180.95" y="0">ft</tspan><tspan class="cls-9" x="204" y="0">s</tspan></text><text class="cls-10" transform="translate(221.43 138.51)">C<tspan class="cls-11" x="9.02" y="0">RA</tspan><tspan x="27.16" y="0">FTING THE E</tspan><tspan class="cls-12" x="111.01" y="0">X</tspan><tspan x="119.49" y="0">T</tspan><tspan class="cls-13" x="128.11" y="0">R</tspan><tspan class="cls-14" x="137.48" y="0">A</tspan><tspan x="146.21" y="0">ORDIN</tspan><tspan class="cls-13" x="191.13" y="0">A</tspan><tspan class="cls-15" x="199.89" y="0">R</tspan><tspan class="cls-16" x="209.15" y="0">Y</tspan></text></svg>